<svg version="1.1" viewBox="0 0 362.06 96" xmlns="http://www.w3.org/2000/svg" xmlns:xlink="http://www.w3.org/1999/xlink" overflow="hidden"><defs></defs><g id="a"></g><g id="b"><g id="c"><path d=" M 116.54 40 L 113.76 40 L 113.76 22.87 L 123.43 22.87 L 123.43 25.24 L 116.54 25.24 L 116.54 30.6 L 123 30.6 L 123 32.98 L 116.54 32.98 L 116.54 40.01 Z M 131.9 40.23 C 129.89 40.23 128.31 39.64 127.17 38.47 C 126.04 37.29 125.47 35.67 125.47 33.61 C 125.47 31.55 126 29.83 127.05 28.62 C 128.1 27.41 129.55 26.8 131.4 26.8 C 133.11 26.8 134.46 27.32 135.46 28.36 C 136.45 29.4 136.95 30.83 136.95 32.65 L 136.95 34.14 L 128.31 34.14 C 128.35 35.4 128.69 36.37 129.33 37.05 C 129.97 37.72 130.87 38.06 132.04 38.06 C 132.81 38.06 133.52 37.99 134.17 37.85 C 134.83 37.7 135.55 37.46 136.3 37.12 L 136.3 39.36 C 135.63 39.68 134.95 39.91 134.26 40.04 C 133.57 40.17 132.79 40.24 131.9 40.24 Z M 131.4 28.89 C 130.52 28.89 129.82 29.17 129.29 29.72 C 128.77 30.27 128.45 31.08 128.35 32.15 L 134.23 32.15 C 134.22 31.08 133.96 30.27 133.46 29.72 C 132.96 29.17 132.27 28.89 131.4 28.89 Z M 144.44 40.23 C 142.82 40.23 141.56 39.64 140.66 38.47 C 139.75 37.3 139.3 35.65 139.3 33.54 C 139.3 31.43 139.76 29.76 140.67 28.58 C 141.59 27.39 142.87 26.8 144.49 26.8 C 146.11 26.8 147.49 27.43 148.38 28.69 L 148.52 28.69 C 148.39 27.76 148.32 27.03 148.32 26.49 L 148.32 21.77 L 151.09 21.77 L 151.09 40 L 148.93 40 L 148.45 38.3 L 148.32 38.3 C 147.44 39.59 146.14 40.23 144.44 40.23 Z M 145.18 38 C 146.31 38 147.14 37.68 147.65 37.05 C 148.17 36.41 148.43 35.37 148.45 33.94 L 148.45 33.55 C 148.45 31.92 148.19 30.76 147.65 30.07 C 147.12 29.38 146.29 29.04 145.15 29.04 C 144.18 29.04 143.43 29.43 142.91 30.22 C 142.39 31 142.12 32.12 142.12 33.57 C 142.12 35.02 142.37 36.11 142.88 36.86 C 143.39 37.61 144.15 37.98 145.16 37.98 Z M 160.68 40.23 C 158.66 40.23 157.09 39.64 155.94 38.47 C 154.81 37.29 154.24 35.67 154.24 33.61 C 154.24 31.55 154.77 29.83 155.82 28.62 C 156.87 27.41 158.32 26.8 160.17 26.8 C 161.88 26.8 163.23 27.32 164.22 28.36 C 165.21 29.4 165.71 30.83 165.71 32.65 L 165.71 34.14 L 157.07 34.14 C 157.11 35.4 157.45 36.37 158.09 37.05 C 158.73 37.72 159.63 38.06 160.8 38.06 C 161.57 38.06 162.28 37.99 162.93 37.85 C 163.59 37.7 164.31 37.46 165.06 37.12 L 165.06 39.36 C 164.39 39.68 163.71 39.91 163.02 40.04 C 162.33 40.17 161.55 40.24 160.67 40.24 Z M 160.18 28.89 C 159.3 28.89 158.6 29.17 158.07 29.72 C 157.55 30.27 157.23 31.08 157.13 32.15 L 163.01 32.15 C 162.99 31.08 162.74 30.27 162.24 29.72 C 161.74 29.17 161.05 28.89 160.18 28.89 Z M 175.43 26.8 C 175.98 26.8 176.44 26.84 176.8 26.92 L 176.53 29.49 C 176.14 29.4 175.73 29.35 175.31 29.35 C 174.21 29.35 173.31 29.71 172.63 30.43 C 171.95 31.15 171.61 32.08 171.61 33.23 L 171.61 40 L 168.86 40 L 168.86 27.04 L 171.02 27.04 L 171.38 29.33 L 171.52 29.33 C 171.95 28.56 172.51 27.94 173.2 27.49 C 173.89 27.04 174.64 26.81 175.44 26.81 Z M 187.32 40 L 186.77 38.2 L 186.68 38.2 C 186.06 38.99 185.43 39.53 184.79 39.82 C 184.16 40.1 183.34 40.24 182.35 40.24 C 181.08 40.24 180.08 39.9 179.36 39.21 C 178.65 38.52 178.29 37.55 178.29 36.29 C 178.29 34.95 178.79 33.95 179.78 33.27 C 180.77 32.59 182.28 32.22 184.32 32.16 L 186.56 32.09 L 186.56 31.4 C 186.56 30.57 186.36 29.95 185.97 29.55 C 185.59 29.14 184.99 28.93 184.18 28.93 C 183.52 28.93 182.88 29.03 182.27 29.22 C 181.66 29.42 181.07 29.65 180.51 29.91 L 179.62 27.94 C 180.32 27.57 181.09 27.3 181.93 27.11 C 182.77 26.91 183.55 26.82 184.3 26.82 C 185.95 26.82 187.19 27.18 188.03 27.9 C 188.87 28.62 189.3 29.75 189.3 31.29 L 189.3 40.02 L 187.33 40.02 Z M 183.22 38.12 C 184.22 38.12 185.02 37.84 185.62 37.29 C 186.23 36.73 186.53 35.94 186.53 34.93 L 186.53 33.81 L 184.87 33.88 C 183.57 33.93 182.63 34.15 182.03 34.54 C 181.44 34.92 181.15 35.51 181.15 36.31 C 181.15 36.89 181.32 37.34 181.67 37.66 C 182.01 37.97 182.53 38.13 183.22 38.13 Z M 195.89 40 L 193.14 40 L 193.14 21.77 L 195.89 21.77 L 195.89 40 Z M 217.71 28.05 C 217.71 29.84 217.12 31.21 215.95 32.16 C 214.78 33.11 213.11 33.59 210.95 33.59 L 209.17 33.59 L 209.17 40 L 206.37 40 L 206.37 22.87 L 211.3 22.87 C 213.44 22.87 215.04 23.31 216.1 24.18 C 217.17 25.06 217.71 26.34 217.71 28.05 Z M 209.17 31.24 L 210.66 31.24 C 212.1 31.24 213.15 30.99 213.82 30.49 C 214.49 29.99 214.83 29.21 214.83 28.15 C 214.83 27.17 214.53 26.43 213.93 25.95 C 213.33 25.47 212.39 25.22 211.12 25.22 L 209.18 25.22 L 209.18 31.24 Z M 229.98 40.01 L 229.59 38.31 L 229.45 38.31 C 229.07 38.91 228.52 39.38 227.81 39.73 C 227.11 40.07 226.3 40.25 225.4 40.25 C 223.83 40.25 222.66 39.86 221.88 39.08 C 221.11 38.3 220.72 37.12 220.72 35.53 L 220.72 27.06 L 223.5 27.06 L 223.5 35.05 C 223.5 36.04 223.7 36.79 224.11 37.29 C 224.52 37.78 225.15 38.03 226.02 38.03 C 227.18 38.03 228.02 37.69 228.56 37 C 229.11 36.3 229.38 35.14 229.38 33.52 L 229.38 27.06 L 232.15 27.06 L 232.15 40.02 L 229.98 40.02 Z M 242.69 26.81 C 244.31 26.81 245.57 27.4 246.46 28.57 C 247.37 29.74 247.82 31.39 247.82 33.5 C 247.82 35.61 247.36 37.28 246.45 38.47 C 245.54 39.65 244.27 40.24 242.64 40.24 C 241.01 40.24 239.73 39.65 238.82 38.47 L 238.63 38.47 L 238.13 40.01 L 236.07 40.01 L 236.07 21.77 L 238.82 21.77 L 238.82 26.11 C 238.82 26.43 238.8 26.91 238.77 27.54 C 238.74 28.17 238.72 28.58 238.7 28.75 L 238.82 28.75 C 239.7 27.46 240.98 26.82 242.69 26.82 Z M 241.98 29.06 C 240.87 29.06 240.07 29.39 239.58 30.04 C 239.1 30.69 238.85 31.78 238.83 33.31 L 238.83 33.5 C 238.83 35.08 239.08 36.22 239.58 36.93 C 240.08 37.63 240.9 37.98 242.03 37.98 C 243.01 37.98 243.74 37.59 244.24 36.82 C 244.75 36.05 245 34.93 245 33.47 C 245 30.52 243.99 29.05 241.98 29.05 Z M 253.78 40.01 L 251.03 40.01 L 251.03 21.77 L 253.78 21.77 L 253.78 40 Z M 260.48 40.01 L 257.73 40.01 L 257.73 27.05 L 260.48 27.05 L 260.48 40.01 Z M 257.56 23.62 C 257.56 23.13 257.69 22.75 257.96 22.48 C 258.23 22.21 258.62 22.08 259.12 22.08 C 259.62 22.08 259.98 22.21 260.24 22.48 C 260.51 22.75 260.65 23.12 260.65 23.62 C 260.65 24.12 260.51 24.46 260.24 24.73 C 259.97 25 259.6 25.13 259.12 25.13 C 258.64 25.13 258.23 25 257.96 24.73 C 257.69 24.46 257.56 24.09 257.56 23.62 Z M 269.65 40.25 C 267.69 40.25 266.2 39.68 265.17 38.54 C 264.15 37.39 263.65 35.75 263.65 33.61 C 263.65 31.47 264.18 29.75 265.24 28.58 C 266.31 27.41 267.85 26.82 269.87 26.82 C 271.24 26.82 272.47 27.07 273.56 27.58 L 272.73 29.79 C 271.57 29.34 270.61 29.11 269.85 29.11 C 267.61 29.11 266.49 30.6 266.49 33.57 C 266.49 35.02 266.77 36.12 267.32 36.85 C 267.88 37.58 268.7 37.94 269.78 37.94 C 271.01 37.94 272.17 37.64 273.26 37.03 L 273.26 39.43 C 272.77 39.72 272.24 39.93 271.68 40.05 C 271.13 40.17 270.45 40.24 269.65 40.24 Z M 292.71 35.36 C 292.71 36.88 292.16 38.08 291.06 38.95 C 289.96 39.82 288.44 40.25 286.5 40.25 C 284.56 40.25 282.98 39.95 281.74 39.35 L 281.74 36.7 C 282.52 37.07 283.35 37.36 284.22 37.57 C 285.1 37.78 285.92 37.89 286.68 37.89 C 287.79 37.89 288.61 37.68 289.13 37.26 C 289.66 36.84 289.93 36.27 289.93 35.56 C 289.93 34.92 289.69 34.38 289.2 33.93 C 288.72 33.48 287.72 32.96 286.2 32.35 C 284.64 31.72 283.54 30.99 282.9 30.18 C 282.26 29.37 281.94 28.39 281.94 27.25 C 281.94 25.82 282.45 24.7 283.46 23.87 C 284.48 23.05 285.84 22.64 287.55 22.64 C 289.26 22.64 290.82 23 292.45 23.72 L 291.56 26.01 C 290.04 25.37 288.68 25.05 287.48 25.05 C 286.57 25.05 285.89 25.25 285.42 25.65 C 284.95 26.04 284.72 26.56 284.72 27.21 C 284.72 27.66 284.81 28.04 285 28.36 C 285.19 28.67 285.5 28.97 285.93 29.25 C 286.36 29.53 287.13 29.9 288.25 30.36 C 289.51 30.88 290.43 31.37 291.02 31.82 C 291.61 32.27 292.04 32.78 292.31 33.36 C 292.58 33.93 292.72 34.6 292.72 35.38 Z M 301.39 40.25 C 299.37 40.25 297.8 39.66 296.66 38.49 C 295.53 37.31 294.96 35.69 294.96 33.63 C 294.96 31.57 295.49 29.85 296.54 28.64 C 297.59 27.43 299.04 26.82 300.89 26.82 C 302.6 26.82 303.95 27.34 304.94 28.38 C 305.93 29.42 306.43 30.85 306.43 32.67 L 306.43 34.16 L 297.79 34.16 C 297.83 35.42 298.17 36.39 298.81 37.07 C 299.45 37.74 300.35 38.08 301.52 38.08 C 302.29 38.08 303 38.01 303.65 37.87 C 304.31 37.72 305.03 37.48 305.78 37.14 L 305.78 39.38 C 305.11 39.7 304.43 39.93 303.74 40.06 C 303.05 40.19 302.27 40.26 301.38 40.26 Z M 300.89 28.91 C 300.01 28.91 299.31 29.19 298.78 29.74 C 298.26 30.29 297.94 31.1 297.84 32.17 L 303.72 32.17 C 303.7 31.1 303.45 30.29 302.95 29.74 C 302.45 29.19 301.76 28.91 300.89 28.91 Z M 316.14 26.82 C 316.69 26.82 317.15 26.86 317.51 26.94 L 317.24 29.51 C 316.85 29.42 316.44 29.37 316.02 29.37 C 314.92 29.37 314.02 29.73 313.34 30.45 C 312.66 31.17 312.32 32.1 312.32 33.25 L 312.32 40.02 L 309.57 40.02 L 309.57 27.06 L 311.73 27.06 L 312.09 29.35 L 312.23 29.35 C 312.66 28.58 313.22 27.96 313.91 27.51 C 314.61 27.06 315.35 26.83 316.15 26.83 Z M 322.88 40.02 L 317.96 27.06 L 320.87 27.06 L 323.51 34.6 C 323.96 35.87 324.24 36.89 324.33 37.67 L 324.42 37.67 C 324.49 37.11 324.76 36.08 325.24 34.6 L 327.88 27.06 L 330.81 27.06 L 325.86 40.02 L 322.88 40.02 Z M 335.52 40.02 L 332.77 40.02 L 332.77 27.06 L 335.52 27.06 L 335.52 40.02 Z M 332.6 23.63 C 332.6 23.14 332.73 22.76 333 22.49 C 333.27 22.22 333.66 22.09 334.16 22.09 C 334.66 22.09 335.02 22.22 335.28 22.49 C 335.55 22.76 335.69 23.13 335.69 23.63 C 335.69 24.13 335.55 24.47 335.28 24.74 C 335.01 25.01 334.64 25.14 334.16 25.14 C 333.68 25.14 333.27 25.01 333 24.74 C 332.73 24.47 332.6 24.1 332.6 23.63 Z M 344.69 40.26 C 342.73 40.26 341.24 39.69 340.21 38.55 C 339.19 37.4 338.69 35.76 338.69 33.62 C 338.69 31.48 339.22 29.76 340.28 28.59 C 341.35 27.42 342.89 26.83 344.91 26.83 C 346.28 26.83 347.51 27.08 348.6 27.59 L 347.77 29.8 C 346.61 29.35 345.65 29.12 344.89 29.12 C 342.65 29.12 341.53 30.61 341.53 33.58 C 341.53 35.03 341.81 36.13 342.36 36.86 C 342.92 37.59 343.74 37.95 344.82 37.95 C 346.05 37.95 347.21 37.65 348.3 37.04 L 348.3 39.44 C 347.81 39.73 347.28 39.94 346.72 40.06 C 346.17 40.18 345.49 40.25 344.69 40.25 Z M 357.01 40.26 C 354.99 40.26 353.42 39.67 352.28 38.5 C 351.15 37.32 350.58 35.7 350.58 33.64 C 350.58 31.58 351.11 29.86 352.16 28.65 C 353.21 27.44 354.66 26.83 356.51 26.83 C 358.22 26.83 359.57 27.35 360.56 28.39 C 361.55 29.43 362.05 30.86 362.05 32.68 L 362.05 34.17 L 353.41 34.17 C 353.45 35.43 353.79 36.4 354.43 37.08 C 355.07 37.75 355.97 38.09 357.14 38.09 C 357.91 38.09 358.62 38.02 359.27 37.88 C 359.93 37.73 360.65 37.49 361.4 37.15 L 361.4 39.39 C 360.73 39.71 360.05 39.94 359.36 40.07 C 358.67 40.2 357.89 40.27 357 40.27 Z M 356.51 28.92 C 355.63 28.92 354.93 29.2 354.4 29.75 C 353.88 30.3 353.56 31.11 353.46 32.18 L 359.34 32.18 C 359.32 31.11 359.07 30.3 358.57 29.75 C 358.07 29.2 357.38 28.92 356.51 28.92 Z M 125.1 61.05 C 125.1 62.84 124.52 64.21 123.34 65.16 C 122.17 66.11 120.5 66.59 118.34 66.59 L 116.56 66.59 L 116.56 73 L 113.76 73 L 113.76 55.87 L 118.69 55.87 C 120.83 55.87 122.43 56.31 123.49 57.18 C 124.56 58.06 125.09 59.34 125.09 61.05 Z M 116.56 64.24 L 118.05 64.24 C 119.49 64.24 120.54 63.99 121.21 63.49 C 121.88 62.99 122.22 62.21 122.22 61.15 C 122.22 60.16 121.92 59.43 121.32 58.95 C 120.72 58.47 119.78 58.22 118.51 58.22 L 116.56 58.22 L 116.56 64.24 Z M 139.73 66.5 C 139.73 68.62 139.19 70.27 138.1 71.46 C 137.01 72.65 135.5 73.24 133.56 73.24 C 132.35 73.24 131.28 72.97 130.35 72.42 C 129.42 71.87 128.71 71.09 128.21 70.06 C 127.71 69.04 127.46 67.85 127.46 66.5 C 127.46 64.4 128 62.76 129.08 61.58 C 130.16 60.4 131.68 59.81 133.64 59.81 C 135.6 59.81 137 60.42 138.09 61.63 C 139.18 62.83 139.73 64.46 139.73 66.51 Z M 130.3 66.5 C 130.3 69.49 131.4 70.99 133.62 70.99 C 135.84 70.99 136.9 69.49 136.9 66.5 C 136.9 63.51 135.8 62.06 133.59 62.06 C 132.43 62.06 131.59 62.44 131.07 63.21 C 130.55 63.98 130.3 65.07 130.3 66.5 Z M 145.66 73 L 142.91 73 L 142.91 54.77 L 145.66 54.77 L 145.66 73 Z M 152.36 73 L 149.61 73 L 149.61 60.04 L 152.36 60.04 L 152.36 73 Z M 149.44 56.61 C 149.44 56.12 149.57 55.74 149.84 55.47 C 150.11 55.2 150.5 55.07 151 55.07 C 151.5 55.07 151.86 55.2 152.12 55.47 C 152.39 55.74 152.53 56.11 152.53 56.61 C 152.53 57.11 152.39 57.45 152.12 57.72 C 151.85 57.99 151.48 58.12 151 58.12 C 150.52 58.12 150.11 57.99 149.84 57.72 C 149.57 57.45 149.44 57.08 149.44 56.61 Z M 161.53 73.24 C 159.57 73.24 158.08 72.67 157.05 71.53 C 156.04 70.38 155.53 68.74 155.53 66.6 C 155.53 64.46 156.06 62.74 157.12 61.57 C 158.19 60.4 159.73 59.81 161.75 59.81 C 163.12 59.81 164.35 60.06 165.44 60.57 L 164.61 62.78 C 163.45 62.33 162.49 62.1 161.73 62.1 C 159.49 62.1 158.37 63.59 158.37 66.56 C 158.37 68.01 158.65 69.11 159.2 69.84 C 159.76 70.57 160.58 70.93 161.66 70.93 C 162.89 70.93 164.05 70.62 165.14 70.01 L 165.14 72.41 C 164.65 72.7 164.12 72.91 163.56 73.03 C 163.01 73.15 162.33 73.22 161.53 73.22 Z M 166.22 60.05 L 169.22 60.05 L 171.86 67.4 C 172.26 68.45 172.52 69.43 172.66 70.35 L 172.75 70.35 C 172.82 69.92 172.95 69.4 173.14 68.79 C 173.33 68.17 174.32 65.26 176.12 60.05 L 179.1 60.05 L 173.56 74.73 C 172.55 77.42 170.87 78.77 168.52 78.77 C 167.91 78.77 167.32 78.7 166.74 78.57 L 166.74 76.39 C 167.16 76.48 167.63 76.53 168.16 76.53 C 169.49 76.53 170.42 75.76 170.96 74.22 L 171.44 73 L 166.24 60.04 Z M 190.61 59.57 C 190.61 60.06 190.74 60.53 191 60.96 C 191.27 61.4 191.63 61.86 192.1 62.35 C 192.98 61.85 193.6 61.39 193.95 60.96 C 194.31 60.52 194.49 60.03 194.49 59.5 C 194.49 58.99 194.32 58.59 193.98 58.28 C 193.64 57.98 193.19 57.82 192.63 57.82 C 192.01 57.82 191.52 57.98 191.15 58.3 C 190.79 58.61 190.61 59.03 190.61 59.57 Z M 192.36 70.88 C 193.79 70.88 195.01 70.46 196.03 69.63 L 191.54 65.21 C 190.71 65.74 190.14 66.24 189.83 66.71 C 189.52 67.17 189.36 67.7 189.36 68.29 C 189.36 69.06 189.63 69.68 190.17 70.17 C 190.72 70.65 191.45 70.88 192.36 70.88 Z M 186.45 68.48 C 186.45 67.46 186.7 66.57 187.2 65.81 C 187.7 65.04 188.6 64.29 189.91 63.54 C 189.17 62.67 188.66 61.94 188.39 61.35 C 188.12 60.75 187.99 60.13 187.99 59.49 C 187.99 58.3 188.41 57.37 189.26 56.68 C 190.11 55.99 191.25 55.65 192.68 55.65 C 194.11 55.65 195.15 55.99 195.94 56.66 C 196.73 57.32 197.12 58.22 197.12 59.36 C 197.12 60.25 196.86 61.06 196.32 61.79 C 195.8 62.52 194.92 63.24 193.68 63.97 L 197.73 67.88 C 198.36 67.04 198.89 65.82 199.31 64.2 L 202.15 64.2 C 201.6 66.42 200.73 68.23 199.53 69.63 L 203.06 73.04 L 199.51 73.04 L 197.76 71.34 C 196.96 71.98 196.11 72.46 195.21 72.79 C 194.31 73.11 193.31 73.27 192.22 73.27 C 190.42 73.27 189.01 72.84 187.99 71.99 C 186.97 71.14 186.45 69.97 186.45 68.5 Z M 221.47 68.36 C 221.47 69.88 220.92 71.08 219.82 71.95 C 218.72 72.82 217.2 73.25 215.26 73.25 C 213.32 73.25 211.74 72.95 210.5 72.35 L 210.5 69.7 C 211.28 70.07 212.11 70.36 212.98 70.57 C 213.86 70.78 214.68 70.89 215.44 70.89 C 216.55 70.89 217.37 70.68 217.89 70.26 C 218.42 69.84 218.69 69.27 218.69 68.56 C 218.69 67.92 218.45 67.38 217.96 66.93 C 217.48 66.49 216.48 65.96 214.96 65.35 C 213.4 64.72 212.3 64 211.66 63.18 C 211.02 62.37 210.7 61.39 210.7 60.25 C 210.7 58.82 211.21 57.69 212.22 56.87 C 213.23 56.05 214.6 55.64 216.31 55.64 C 218.02 55.64 219.58 56 221.21 56.72 L 220.32 59.01 C 218.8 58.37 217.44 58.05 216.24 58.05 C 215.33 58.05 214.65 58.25 214.18 58.65 C 213.71 59.04 213.48 59.56 213.48 60.21 C 213.48 60.65 213.57 61.04 213.76 61.36 C 213.95 61.67 214.26 61.97 214.69 62.25 C 215.12 62.53 215.89 62.9 217.01 63.36 C 218.27 63.88 219.19 64.37 219.78 64.82 C 220.37 65.27 220.8 65.79 221.07 66.36 C 221.34 66.93 221.48 67.6 221.48 68.38 Z M 233.63 73.01 L 233.24 71.31 L 233.1 71.31 C 232.72 71.91 232.17 72.38 231.46 72.73 C 230.76 73.07 229.95 73.24 229.05 73.24 C 227.48 73.24 226.31 72.85 225.53 72.07 C 224.76 71.29 224.37 70.11 224.37 68.52 L 224.37 60.05 L 227.15 60.05 L 227.15 68.04 C 227.15 69.03 227.35 69.78 227.76 70.28 C 228.17 70.77 228.8 71.02 229.67 71.02 C 230.83 71.02 231.67 70.68 232.21 69.99 C 232.76 69.29 233.03 68.13 233.03 66.51 L 233.03 60.05 L 235.8 60.05 L 235.8 73.01 L 233.63 73.01 Z M 246.3 73.24 C 244.66 73.24 243.39 72.65 242.48 71.47 L 242.32 71.47 C 242.43 72.56 242.48 73.23 242.48 73.46 L 242.48 78.77 L 239.73 78.77 L 239.73 60.04 L 241.96 60.04 C 242.02 60.28 242.15 60.86 242.35 61.77 L 242.49 61.77 C 243.35 60.46 244.64 59.8 246.36 59.8 C 247.98 59.8 249.24 60.39 250.13 61.56 C 251.04 62.73 251.49 64.38 251.49 66.49 C 251.49 68.6 251.03 70.26 250.11 71.45 C 249.2 72.64 247.93 73.23 246.31 73.23 Z M 245.63 62.06 C 244.54 62.06 243.74 62.38 243.23 63.02 C 242.73 63.66 242.48 64.68 242.48 66.09 L 242.48 66.5 C 242.48 68.08 242.73 69.22 243.23 69.93 C 243.73 70.63 244.55 70.98 245.68 70.98 C 246.63 70.98 247.37 70.59 247.88 69.81 C 248.4 69.03 248.65 67.92 248.65 66.47 C 248.65 65.02 248.39 63.92 247.88 63.18 C 247.37 62.43 246.62 62.06 245.63 62.06 Z M 261.25 73.24 C 259.61 73.24 258.34 72.65 257.43 71.47 L 257.27 71.47 C 257.38 72.56 257.43 73.23 257.43 73.46 L 257.43 78.77 L 254.68 78.77 L 254.68 60.04 L 256.91 60.04 C 256.97 60.28 257.1 60.86 257.3 61.77 L 257.44 61.77 C 258.3 60.46 259.59 59.8 261.31 59.8 C 262.93 59.8 264.19 60.39 265.08 61.56 C 265.99 62.73 266.44 64.38 266.44 66.49 C 266.44 68.6 265.98 70.26 265.06 71.45 C 264.15 72.64 262.88 73.23 261.26 73.23 Z M 260.58 62.06 C 259.49 62.06 258.69 62.38 258.18 63.02 C 257.68 63.66 257.43 64.68 257.43 66.09 L 257.43 66.5 C 257.43 68.08 257.68 69.22 258.18 69.93 C 258.68 70.63 259.5 70.98 260.63 70.98 C 261.58 70.98 262.32 70.59 262.83 69.81 C 263.35 69.03 263.6 67.92 263.6 66.47 C 263.6 65.02 263.34 63.92 262.83 63.18 C 262.32 62.43 261.57 62.06 260.58 62.06 Z M 281.12 66.5 C 281.12 68.62 280.58 70.27 279.49 71.46 C 278.4 72.65 276.89 73.24 274.95 73.24 C 273.74 73.24 272.67 72.97 271.74 72.42 C 270.81 71.87 270.1 71.09 269.6 70.06 C 269.1 69.04 268.85 67.85 268.85 66.5 C 268.85 64.4 269.39 62.76 270.47 61.58 C 271.55 60.4 273.07 59.81 275.03 59.81 C 276.99 59.81 278.39 60.42 279.48 61.63 C 280.57 62.83 281.12 64.46 281.12 66.51 Z M 271.69 66.5 C 271.69 69.49 272.8 70.99 275.01 70.99 C 277.22 70.99 278.29 69.49 278.29 66.5 C 278.29 63.51 277.19 62.06 274.99 62.06 C 273.83 62.06 272.99 62.44 272.47 63.21 C 271.95 63.98 271.7 65.07 271.7 66.5 Z M 290.87 59.81 C 291.42 59.81 291.88 59.85 292.24 59.93 L 291.97 62.5 C 291.58 62.41 291.17 62.36 290.75 62.36 C 289.65 62.36 288.75 62.72 288.07 63.44 C 287.39 64.16 287.05 65.09 287.05 66.24 L 287.05 73.01 L 284.3 73.01 L 284.3 60.05 L 286.46 60.05 L 286.82 62.33 L 286.96 62.33 C 287.39 61.56 287.95 60.94 288.64 60.49 C 289.34 60.04 290.08 59.81 290.88 59.81 Z M 299.48 71.01 C 300.15 71.01 300.82 70.9 301.5 70.69 L 301.5 72.76 C 301.2 72.89 300.8 73 300.32 73.09 C 299.84 73.18 299.35 73.23 298.83 73.23 C 296.22 73.23 294.92 71.85 294.92 69.11 L 294.92 62.13 L 293.15 62.13 L 293.15 60.91 L 295.05 59.9 L 295.99 57.16 L 297.69 57.16 L 297.69 60.04 L 301.38 60.04 L 301.38 62.13 L 297.69 62.13 L 297.69 69.07 C 297.69 69.74 297.85 70.23 298.18 70.55 C 298.52 70.86 298.95 71.02 299.49 71.02 Z" fill="#057A8B"/><path d=" M 72.41 85.81 C 69.58 88.55 65.78 90.06 61.84 90.02 C 59.95 90.02 58.09 89.63 56.36 88.87 C 54.63 88.11 53.08 87.01 51.79 85.63 C 49.18 82.84 47.72 79.16 47.72 75.33 C 47.72 71.5 49.17 67.83 51.79 65.03 C 53.07 63.64 54.63 62.53 56.37 61.77 C 58.11 61.01 59.98 60.62 61.87 60.63 C 70.34 60.63 76.72 66.98 76.72 75.4 C 76.74 77.33 76.37 79.25 75.63 81.04 C 74.89 82.83 73.81 84.45 72.44 85.81 L 72.41 85.81 Z M 82.88 75.21 L 82.88 56.79 C 82.88 56.45 82.74 56.13 82.5 55.89 C 82.26 55.65 81.93 55.52 81.6 55.52 L 77.98 55.52 C 77.64 55.52 77.31 55.65 77.08 55.89 C 76.84 56.13 76.71 56.46 76.71 56.79 L 76.71 60.5 C 72.79 56.73 67.55 54.66 62.11 54.71 C 59.4 54.71 56.71 55.23 54.21 56.28 C 51.71 57.33 49.44 58.86 47.54 60.8 C 43.76 64.69 41.66 69.91 41.69 75.34 C 41.72 80.77 43.88 85.96 47.71 89.81 C 51.54 93.66 56.72 95.85 62.15 95.91 C 67.58 95.97 72.81 93.9 76.73 90.14 L 76.73 93.85 C 76.73 94.19 76.86 94.51 77.1 94.75 C 77.34 94.99 77.67 95.12 78 95.12 L 81.61 95.12 C 81.95 95.12 82.27 94.99 82.51 94.75 C 82.75 94.51 82.89 94.18 82.89 93.85 L 82.89 75.18" fill="#057A8B"/><path d=" M 26.06 70.74 C 21.84 69.2 19.24 68.1 19.24 65.14 C 19.24 62.61 21.96 60.65 24.31 60.65 C 25.44 60.65 26.55 60.97 27.5 61.58 C 28.45 62.19 29.2 63.07 29.65 64.11 C 29.72 64.27 29.82 64.41 29.95 64.53 C 30.08 64.65 30.23 64.74 30.39 64.8 C 30.52 64.85 30.66 64.87 30.8 64.87 C 31 64.87 31.2 64.82 31.38 64.73 L 34.51 63.13 C 34.8 62.98 35.03 62.72 35.13 62.41 C 35.24 62.1 35.22 61.76 35.08 61.45 C 34.08 59.48 32.56 57.82 30.69 56.64 C 28.82 55.46 26.66 54.82 24.45 54.77 C 21.54 54.74 18.72 55.78 16.53 57.68 C 15.43 58.65 14.56 59.85 13.96 61.18 C 13.36 62.52 13.06 63.97 13.07 65.43 C 13.07 72.64 19.82 75.11 24.75 76.91 C 28.49 78.21 31.13 79.41 31.13 83.01 C 31.14 83.94 30.96 84.86 30.61 85.73 C 30.26 86.59 29.74 87.38 29.08 88.03 C 28.42 88.69 27.64 89.21 26.78 89.56 C 25.92 89.91 24.99 90.09 24.06 90.08 C 21.34 90.08 17.75 88.93 16.05 83.44 C 16 83.28 15.92 83.13 15.81 83 C 15.7 82.87 15.57 82.76 15.42 82.68 C 15.24 82.58 15.04 82.54 14.83 82.54 C 14.7 82.54 14.57 82.56 14.44 82.6 L 10.91 83.73 C 10.6 83.83 10.34 84.04 10.18 84.33 C 10.02 84.61 9.98 84.95 10.06 85.26 C 11.71 91.79 17.21 96.02 24.06 96.02 C 31.6 96.02 37.29 90.49 37.29 83.18 C 37.29 74.88 31.07 72.63 26.05 70.8" fill="#057A8B"/><path d=" M 92.25 44.15 C 91.51 44.15 90.78 44.37 90.17 44.78 C 89.55 45.19 89.07 45.78 88.79 46.46 C 88.51 47.15 88.43 47.9 88.58 48.63 C 88.72 49.36 89.08 50.03 89.61 50.55 C 90.13 51.07 90.8 51.43 91.53 51.58 C 92.26 51.72 93.01 51.65 93.7 51.37 C 94.38 51.09 94.97 50.61 95.38 49.99 C 95.79 49.37 96.01 48.65 96.01 47.91 C 96.01 47.42 95.92 46.93 95.74 46.47 C 95.55 46.01 95.28 45.6 94.93 45.25 C 94.58 44.9 94.17 44.62 93.71 44.44 C 93.25 44.25 92.76 44.16 92.27 44.17 Z" fill="#FC6D71"/><path d=" M 15 45.38 L 81 45.38 C 82.24 45.38 83.25 46.39 83.25 47.63 L 83.25 47.63 C 83.25 48.87 82.24 49.88 81 49.88 L 15 49.88 C 13.76 49.88 12.75 48.87 12.75 47.63 L 12.75 47.63 C 12.75 46.39 13.76 45.38 15 45.38 Z" fill="#FFED75"/><path d=" M 3.75 44.15 C 3.01 44.15 2.28 44.37 1.67 44.78 C 1.05 45.19 0.57 45.78 0.29 46.46 C 0.01 47.15 -0.07 47.9 0.08 48.63 C 0.22 49.36 0.58 50.03 1.11 50.55 C 1.63 51.07 2.3 51.43 3.03 51.58 C 3.76 51.72 4.51 51.65 5.2 51.37 C 5.89 51.09 6.47 50.61 6.88 49.99 C 7.29 49.37 7.51 48.65 7.51 47.91 C 7.51 47.42 7.42 46.93 7.24 46.47 C 7.05 46.01 6.78 45.6 6.43 45.25 C 6.08 44.9 5.67 44.62 5.21 44.44 C 4.75 44.25 4.26 44.16 3.77 44.17 Z" fill="#09181B"/><path d=" M 51.77 10.27 C 53.06 8.87 54.62 7.76 56.36 7 C 58.1 6.24 59.98 5.85 61.88 5.86 C 70.36 5.86 76.77 12.22 76.77 20.66 C 76.79 22.6 76.42 24.52 75.68 26.31 C 74.94 28.1 73.85 29.73 72.48 31.09 C 69.65 33.84 65.84 35.36 61.89 35.31 C 60 35.31 58.13 34.92 56.39 34.17 C 54.66 33.41 53.1 32.31 51.81 30.92 C 49.19 28.12 47.74 24.43 47.74 20.6 C 47.74 16.77 49.2 13.08 51.81 10.28 L 51.78 10.28 Z M 62.17 41.17 C 67.66 41.22 72.95 39.1 76.88 35.27 C 80.74 31.36 82.91 26.09 82.91 20.59 C 82.91 15.09 80.74 9.82 76.88 5.91 C 72.95 2.07 67.66 -0.06 62.16 0 C 59.46 0 56.78 0.53 54.29 1.57 C 51.8 2.61 49.54 4.15 47.65 6.08 C 44.8 8.96 42.86 12.62 42.08 16.6 C 41.3 20.58 41.71 24.7 43.26 28.45 C 44.81 32.2 47.43 35.4 50.8 37.67 C 54.16 39.93 58.12 41.15 62.18 41.18 Z" fill="#057A8B"/><path d=" M 19.34 23.01 L 22.41 23.01 C 24.83 23.01 27.34 23.08 29.06 23.94 C 29.88 24.4 30.56 25.07 31.02 25.89 C 31.48 26.71 31.71 27.64 31.67 28.58 C 31.67 29.53 31.42 30.46 30.95 31.28 C 30.49 32.11 29.82 32.8 29.02 33.3 C 27.59 34.27 25.87 34.34 23.59 34.34 L 19.34 34.34 L 19.34 23.01 Z M 19.34 6.83 L 21.32 6.83 C 23.25 6.83 25.06 6.83 26.39 7.67 C 27.06 8.14 27.6 8.78 27.95 9.51 C 28.3 10.25 28.46 11.07 28.41 11.88 C 28.41 13.95 27.93 15.04 26.57 16.03 C 25.33 16.92 24.14 16.99 22.47 16.99 L 19.35 16.99 L 19.35 6.83 Z M 14.42 40.37 L 24.25 40.37 C 29.55 40.37 31.99 38.92 33.84 37.35 C 35.13 36.26 36.15 34.9 36.84 33.37 C 37.53 31.84 37.87 30.17 37.83 28.49 C 37.85 26.54 37.34 24.62 36.37 22.93 C 35.4 21.24 33.99 19.84 32.3 18.88 C 33.83 17.01 34.63 14.64 34.54 12.22 C 34.54 8.45 33.32 5.47 30.9 3.37 C 28.24 1.01 25.04 0.81 22.24 0.81 L 14.42 0.81 C 14.09 0.81 13.77 0.94 13.54 1.17 C 13.31 1.4 13.18 1.72 13.18 2.05 L 13.18 39.12 C 13.18 39.45 13.31 39.76 13.55 40 C 13.78 40.23 14.1 40.36 14.43 40.37 Z" fill="#057A8B"/></g></g></svg>