<svg version="1.1" width="139" height="97" viewBox="0 0 139 97" xmlns="http://www.w3.org/2000/svg" xmlns:xlink="http://www.w3.org/1999/xlink" overflow="hidden"><g id="Page-1" stroke="none" stroke-width="1" fill="none" fill-rule="evenodd"><g id="iOlogowhite" fill="#000000" fill-rule="nonzero" transform="matrix(1,0,0,1,0.26,0.88)"><path d=" M 92.16 26.72 C 104.77 26.72 115.02 36.98 115.02 49.58 C 115.02 62.18 104.76 72.44 92.16 72.44 C 79.56 72.44 69.3 62.18 69.3 49.58 C 69.3 36.98 79.56 26.72 92.16 26.72 M 92.16 3.86 C 66.91 3.86 46.44 24.33 46.44 49.58 C 46.44 74.83 66.91 95.3 92.16 95.3 C 117.41 95.3 137.88 74.83 137.88 49.58 C 137.89 24.33 117.42 3.86 92.16 3.86 L 92.16 3.86 Z" id="Shape"/><g id="Group"><path d=" M 21.54 35.06 L 21.54 35.06 L 7.10543e-15 83.44 L 24.26 94.24 L 35 70.11 C 40.96 56.72 34.93 41.02 21.54 35.06 Z" id="Path"/><path d=" M 8.08 7.10543e-15 C 2.12 13.4 8.14 29.09 21.54 35.06 L 32.34 10.8 L 8.08 7.10543e-15 Z" id="Path"/></g></g></g></svg>