<svg width="235" height="62" xmlns="http://www.w3.org/2000/svg" xmlns:xlink="http://www.w3.org/1999/xlink" xml:space="preserve" overflow="hidden"><defs><clipPath id="clip0"><rect x="221" y="348" width="235" height="62"/></clipPath><clipPath id="clip1"><rect x="222" y="349" width="233" height="61"/></clipPath><clipPath id="clip2"><rect x="222" y="349" width="233" height="61"/></clipPath><clipPath id="clip3"><rect x="222" y="349" width="233" height="61"/></clipPath></defs><g clip-path="url(#clip0)" transform="translate(-221 -348)"><g clip-path="url(#clip1)"><g clip-path="url(#clip2)"><g clip-path="url(#clip3)"><path d="M74.0392 25.4125 72.273 25.4125 72.273 14.5296 78.4165 14.5296 78.4165 16.0353 74.0392 16.0353 74.0392 19.4405 78.1433 19.4405 78.1433 20.9526 74.0392 20.9526 74.0392 25.4188ZM83.7976 25.5586C82.5206 25.5586 81.5168 25.1837 80.7925 24.4404 80.0746 23.6908 79.7125 22.6616 79.7125 21.3528 79.7125 20.0441 80.0492 18.9513 80.7163 18.1826 81.3834 17.4139 82.3046 17.0263 83.4799 17.0263 84.5663 17.0263 85.424 17.3567 86.0593 18.0174 86.6882 18.6782 87.0059 19.5866 87.0059 20.7429L87.0059 21.6895 81.5168 21.6895C81.5422 22.49 81.7582 23.1063 82.1648 23.5383 82.5714 23.9639 83.1432 24.18 83.8865 24.18 84.3757 24.18 84.8268 24.1355 85.2397 24.0465 85.659 23.9512 86.1165 23.7988 86.5929 23.5828L86.5929 25.0059C86.1673 25.2092 85.7353 25.3553 85.2969 25.4379 84.8585 25.5205 84.363 25.5649 83.7976 25.5649ZM83.4799 18.3541C82.9208 18.3541 82.4761 18.532 82.1394 18.8815 81.809 19.2309 81.6057 19.7455 81.5422 20.4253L85.2778 20.4253C85.2715 19.7455 85.1063 19.2309 84.7887 18.8815 84.471 18.532 84.0326 18.3541 83.4799 18.3541ZM91.7644 25.5586C90.7352 25.5586 89.9347 25.1837 89.3629 24.4404 88.7848 23.6971 88.4989 22.6489 88.4989 21.3083 88.4989 19.9678 88.7911 18.9069 89.3692 18.1572 89.9537 17.4012 90.7669 17.0263 91.7961 17.0263 92.8253 17.0263 93.7021 17.4266 94.2675 18.2271L94.3564 18.2271C94.2738 17.6362 94.2294 17.1725 94.2294 16.8294L94.2294 13.8307 95.9892 13.8307 95.9892 25.4125 94.6169 25.4125 94.312 24.3324 94.2294 24.3324C93.6703 25.152 92.8444 25.5586 91.7644 25.5586ZM92.2345 24.1418C92.9524 24.1418 93.4797 23.9385 93.8037 23.5383 94.1341 23.1317 94.2993 22.471 94.312 21.5625L94.312 21.3147C94.312 20.2791 94.1468 19.5422 93.8037 19.1038 93.467 18.6654 92.9397 18.4494 92.2154 18.4494 91.5992 18.4494 91.1227 18.6972 90.7924 19.1991 90.462 19.6947 90.2905 20.4062 90.2905 21.3274 90.2905 22.2486 90.4493 22.9411 90.7733 23.4176 91.0973 23.8941 91.5801 24.1291 92.2218 24.1291ZM102.082 25.5586C100.799 25.5586 99.8011 25.1837 99.0705 24.4404 98.3526 23.6908 97.9904 22.6616 97.9904 21.3528 97.9904 20.0441 98.3271 18.9513 98.9942 18.1826 99.6613 17.4139 100.582 17.0263 101.758 17.0263 102.844 17.0263 103.702 17.3567 104.331 18.0174 104.96 18.6782 105.277 19.5866 105.277 20.7429L105.277 21.6895 99.7884 21.6895C99.8138 22.49 100.03 23.1063 100.436 23.5383 100.843 23.9639 101.415 24.18 102.158 24.18 102.647 24.18 103.098 24.1355 103.511 24.0465 103.931 23.9512 104.388 23.7988 104.864 23.5828L104.864 25.0059C104.439 25.2092 104.007 25.3553 103.568 25.4379 103.13 25.5205 102.635 25.5649 102.075 25.5649ZM101.764 18.3541C101.205 18.3541 100.76 18.532 100.424 18.8815 100.093 19.2309 99.89 19.7455 99.8265 20.4253L103.562 20.4253C103.549 19.7455 103.391 19.2309 103.073 18.8815 102.755 18.532 102.317 18.3541 101.764 18.3541ZM111.453 17.0263C111.802 17.0263 112.094 17.0518 112.323 17.1026L112.152 18.7353C111.904 18.6782 111.643 18.6464 111.376 18.6464 110.678 18.6464 110.106 18.8751 109.674 19.3325 109.242 19.7899 109.026 20.3808 109.026 21.1114L109.026 25.4125 107.279 25.4125 107.279 17.1788 108.651 17.1788 108.88 18.6337 108.969 18.6337C109.242 18.1445 109.598 17.7506 110.036 17.4647 110.474 17.1788 110.951 17.0327 111.459 17.0327ZM119.007 25.4125 118.657 24.2689 118.6 24.2689C118.206 24.7708 117.806 25.1139 117.399 25.2981 116.999 25.476 116.478 25.5649 115.849 25.5649 115.042 25.5649 114.407 25.3489 113.949 24.9106 113.498 24.4722 113.27 23.8559 113.27 23.0555 113.27 22.2041 113.587 21.5688 114.216 21.1368 114.845 20.7048 115.805 20.4697 117.101 20.4316L118.524 20.3871 118.524 19.9488C118.524 19.4215 118.397 19.0276 118.149 18.7735 117.907 18.513 117.526 18.3796 117.012 18.3796 116.592 18.3796 116.186 18.4431 115.798 18.5638 115.411 18.6909 115.036 18.837 114.68 19.0022L114.115 17.7506C114.559 17.5155 115.049 17.344 115.582 17.2233 116.116 17.0962 116.611 17.0391 117.088 17.0391 118.136 17.0391 118.924 17.2678 119.458 17.7252 119.991 18.1826 120.264 18.9005 120.264 19.8789L120.264 25.4252 119.013 25.4252ZM116.402 24.2181C117.037 24.2181 117.545 24.0402 117.926 23.6908 118.314 23.335 118.505 22.8331 118.505 22.1914L118.505 21.4799 117.45 21.5243C116.624 21.5561 116.027 21.6959 115.646 21.9437 115.271 22.1851 115.087 22.5599 115.087 23.0682 115.087 23.4366 115.195 23.7225 115.417 23.9258 115.633 24.1228 115.963 24.2244 116.402 24.2244ZM124.451 25.4125 122.704 25.4125 122.704 13.8307 124.451 13.8307 124.451 25.4125ZM138.314 17.8205C138.314 18.9577 137.939 19.8281 137.195 20.4316 136.452 21.0352 135.391 21.3401 134.019 21.3401L132.888 21.3401 132.888 25.4125 131.109 25.4125 131.109 14.5296 134.241 14.5296C135.601 14.5296 136.617 14.8091 137.291 15.3618 137.971 15.9209 138.314 16.7341 138.314 17.8205ZM132.888 19.8471 133.835 19.8471C134.75 19.8471 135.417 19.6883 135.842 19.3706 136.268 19.053 136.484 18.5574 136.484 17.884 136.484 17.2614 136.293 16.7913 135.912 16.4863 135.531 16.1814 134.934 16.0226 134.127 16.0226L132.894 16.0226 132.894 19.8471ZM146.109 25.4188 145.861 24.3388 145.772 24.3388C145.531 24.72 145.181 25.0186 144.73 25.2409 144.286 25.4569 143.771 25.5713 143.199 25.5713 142.202 25.5713 141.458 25.3235 140.963 24.828 140.474 24.3324 140.226 23.5828 140.226 22.5726L140.226 17.1915 141.992 17.1915 141.992 22.2677C141.992 22.8966 142.119 23.3731 142.38 23.6908 142.64 24.0021 143.04 24.1609 143.593 24.1609 144.33 24.1609 144.864 23.9449 145.207 23.5065 145.556 23.0618 145.728 22.3248 145.728 21.2956L145.728 17.1915 147.488 17.1915 147.488 25.4252 146.109 25.4252ZM154.184 17.0327C155.213 17.0327 156.013 17.4075 156.579 18.1508 157.157 18.8942 157.443 19.9424 157.443 21.2829 157.443 22.6234 157.151 23.6844 156.572 24.4404 155.994 25.1901 155.188 25.5649 154.152 25.5649 153.116 25.5649 152.303 25.1901 151.725 24.4404L151.604 24.4404 151.287 25.4188 149.978 25.4188 149.978 13.8307 151.725 13.8307 151.725 16.588C151.725 16.7913 151.712 17.0962 151.693 17.4965 151.674 17.8967 151.662 18.1572 151.649 18.2652L151.725 18.2652C152.284 17.4457 153.097 17.0391 154.184 17.0391ZM153.733 18.4621C153.027 18.4621 152.519 18.6718 152.208 19.0848 151.903 19.4977 151.744 20.1902 151.731 21.1622L151.731 21.2829C151.731 22.2867 151.89 23.011 152.208 23.462 152.526 23.9068 153.047 24.1291 153.764 24.1291 154.387 24.1291 154.851 23.8814 155.168 23.3922 155.492 22.903 155.651 22.1914 155.651 21.2639 155.651 19.3897 155.01 18.4558 153.733 18.4558ZM161.229 25.4188 159.482 25.4188 159.482 13.8307 161.229 13.8307 161.229 25.4125ZM165.486 25.4188 163.739 25.4188 163.739 17.1852 165.486 17.1852 165.486 25.4188ZM163.631 15.0061C163.631 14.6948 163.713 14.4533 163.885 14.2818 164.056 14.1103 164.304 14.0277 164.622 14.0277 164.94 14.0277 165.168 14.1103 165.333 14.2818 165.505 14.4533 165.594 14.6884 165.594 15.0061 165.594 15.3237 165.505 15.5397 165.333 15.7112 165.162 15.8828 164.927 15.9654 164.622 15.9654 164.317 15.9654 164.056 15.8828 163.885 15.7112 163.713 15.5397 163.631 15.3047 163.631 15.0061ZM171.312 25.5713C170.066 25.5713 169.12 25.2092 168.466 24.4849 167.817 23.7543 167.5 22.7124 167.5 21.3528 167.5 19.9932 167.837 18.9005 168.51 18.1572 169.19 17.4139 170.168 17.0391 171.451 17.0391 172.322 17.0391 173.103 17.1979 173.796 17.5219L173.268 18.9259C172.532 18.64 171.922 18.4939 171.439 18.4939 170.016 18.4939 169.304 19.4405 169.304 21.3274 169.304 22.2486 169.482 22.9474 169.831 23.4112 170.187 23.875 170.708 24.1037 171.394 24.1037 172.176 24.1037 172.913 23.9131 173.605 23.5256L173.605 25.0503C173.294 25.2346 172.957 25.368 172.601 25.4442 172.252 25.5205 171.82 25.5649 171.312 25.5649ZM185.962 22.4646C185.962 23.4303 185.613 24.1927 184.914 24.7454 184.215 25.2981 183.249 25.5713 182.017 25.5713 180.784 25.5713 179.78 25.3807 178.993 24.9995L178.993 23.3159C179.488 23.551 180.015 23.7352 180.568 23.8686 181.127 24.0021 181.648 24.0719 182.131 24.0719 182.836 24.0719 183.357 23.9385 183.688 23.6717 184.024 23.4049 184.196 23.0427 184.196 22.5917 184.196 22.1851 184.043 21.842 183.732 21.5561 183.427 21.2702 182.792 20.9399 181.826 20.5523 180.835 20.1521 180.136 19.6883 179.73 19.1737 179.323 18.6591 179.12 18.0365 179.12 17.3122 179.12 16.4037 179.444 15.6922 180.085 15.1649 180.733 14.6439 181.597 14.3834 182.684 14.3834 183.77 14.3834 184.761 14.6122 185.797 15.0696L185.231 16.5244C184.266 16.1178 183.402 15.9145 182.639 15.9145 182.061 15.9145 181.629 16.0416 181.331 16.2957 181.032 16.5435 180.886 16.8739 180.886 17.2868 180.886 17.5727 180.943 17.8141 181.064 18.0174 181.184 18.2144 181.381 18.405 181.655 18.5829 181.928 18.7607 182.417 18.9958 183.128 19.2881 183.929 19.6184 184.513 19.9297 184.888 20.2156 185.263 20.5015 185.536 20.8255 185.708 21.194 185.879 21.5561 185.968 21.9818 185.968 22.4773ZM191.477 25.5713C190.193 25.5713 189.196 25.1964 188.471 24.4531 187.754 23.7035 187.391 22.6743 187.391 21.3655 187.391 20.0568 187.728 18.964 188.395 18.1953 189.062 17.4266 189.984 17.0391 191.159 17.0391 192.245 17.0391 193.103 17.3694 193.732 18.0301 194.361 18.6909 194.678 19.5994 194.678 20.7556L194.678 21.7022 189.189 21.7022C189.215 22.5027 189.431 23.119 189.837 23.551 190.244 23.9767 190.816 24.1927 191.559 24.1927 192.048 24.1927 192.499 24.1482 192.912 24.0592 193.332 23.9639 193.789 23.8115 194.266 23.5955L194.266 25.0186C193.84 25.2219 193.408 25.368 192.969 25.4506 192.531 25.5332 192.036 25.5776 191.47 25.5776ZM191.159 18.3669C190.6 18.3669 190.155 18.5447 189.818 18.8942 189.488 19.2436 189.285 19.7582 189.221 20.438L192.957 20.438C192.944 19.7582 192.785 19.2436 192.468 18.8942 192.15 18.5447 191.712 18.3669 191.159 18.3669ZM200.847 17.0391C201.197 17.0391 201.489 17.0645 201.718 17.1153L201.546 18.748C201.298 18.6909 201.038 18.6591 200.771 18.6591 200.072 18.6591 199.5 18.8878 199.068 19.3452 198.636 19.8027 198.42 20.3935 198.42 21.1241L198.42 25.4252 196.673 25.4252 196.673 17.1915 198.046 17.1915 198.274 18.6464 198.363 18.6464C198.636 18.1572 198.992 17.7633 199.431 17.4774 199.875 17.1915 200.345 17.0454 200.854 17.0454ZM205.129 25.4252 202.004 17.1915 203.852 17.1915 205.53 21.9818C205.815 22.7886 205.993 23.4366 206.051 23.9322L206.108 23.9322C206.152 23.5764 206.324 22.922 206.629 21.9818L208.306 17.1915 210.167 17.1915 207.023 25.4252 205.129 25.4252ZM213.16 25.4252 211.413 25.4252 211.413 17.1915 213.16 17.1915 213.16 25.4252ZM211.305 15.0124C211.305 14.7011 211.387 14.4597 211.559 14.2882 211.73 14.1166 211.978 14.034 212.296 14.034 212.613 14.034 212.842 14.1166 213.007 14.2882 213.179 14.4597 213.268 14.6948 213.268 15.0124 213.268 15.3301 213.179 15.5461 213.007 15.7176 212.836 15.8891 212.601 15.9717 212.296 15.9717 211.991 15.9717 211.73 15.8891 211.559 15.7176 211.387 15.5461 211.305 15.311 211.305 15.0124ZM218.985 25.5776C217.74 25.5776 216.794 25.2155 216.139 24.4913 215.491 23.7606 215.174 22.7187 215.174 21.3592 215.174 19.9996 215.51 18.9069 216.184 18.1636 216.864 17.4202 217.842 17.0454 219.125 17.0454 219.996 17.0454 220.777 17.2042 221.47 17.5282L220.942 18.9323C220.205 18.6464 219.595 18.5003 219.113 18.5003 217.689 18.5003 216.978 19.4469 216.978 21.3338 216.978 22.255 217.156 22.9538 217.505 23.4176 217.861 23.8814 218.382 24.1101 219.068 24.1101 219.849 24.1101 220.586 23.9195 221.279 23.5319L221.279 25.0567C220.968 25.2409 220.631 25.3743 220.275 25.4506 219.926 25.5268 219.494 25.5713 218.985 25.5713ZM226.813 25.5776C225.529 25.5776 224.532 25.2028 223.807 24.4595 223.09 23.7098 222.727 22.6806 222.727 21.3719 222.727 20.0631 223.064 18.9704 223.731 18.2017 224.398 17.4329 225.32 17.0454 226.495 17.0454 227.581 17.0454 228.439 17.3758 229.068 18.0365 229.697 18.6972 230.014 19.6057 230.014 20.762L230.014 21.7086 224.525 21.7086C224.551 22.5091 224.767 23.1253 225.173 23.5573 225.58 23.983 226.152 24.199 226.895 24.199 227.384 24.199 227.835 24.1545 228.248 24.0656 228.668 23.9703 229.125 23.8178 229.602 23.6018L229.602 25.0249C229.176 25.2282 228.744 25.3743 228.305 25.4569 227.867 25.5395 227.372 25.584 226.806 25.584ZM226.495 18.3732C225.936 18.3732 225.491 18.5511 225.154 18.9005 224.824 19.2499 224.621 19.7645 224.557 20.4443L228.293 20.4443C228.28 19.7645 228.121 19.2499 227.804 18.9005 227.486 18.5511 227.048 18.3732 226.495 18.3732ZM79.4774 38.7858C79.4774 39.923 79.109 40.7933 78.3593 41.3969 77.616 42.0004 76.555 42.3054 75.1827 42.3054L74.0519 42.3054 74.0519 46.3777 72.273 46.3777 72.273 35.4948 75.4051 35.4948C76.7647 35.4948 77.7812 35.7744 78.4546 36.3271 79.1344 36.8862 79.4711 37.6994 79.4711 38.7858ZM74.0519 40.8124 74.9985 40.8124C75.9134 40.8124 76.5804 40.6536 77.0061 40.3359 77.4317 40.0183 77.6478 39.5227 77.6478 38.8493 77.6478 38.2203 77.4572 37.7566 77.076 37.4516 76.6948 37.1467 76.0976 36.9878 75.2907 36.9878L74.0519 36.9878 74.0519 40.8124ZM88.7721 42.2482C88.7721 43.5951 88.429 44.6433 87.7365 45.3993 87.044 46.1554 86.0847 46.5302 84.8522 46.5302 84.0835 46.5302 83.4037 46.3587 82.8128 46.0092 82.222 45.6598 81.7709 45.1643 81.4533 44.5099 81.1356 43.8619 80.9768 43.1059 80.9768 42.2482 80.9768 40.9141 81.3199 39.8721 82.006 39.1225 82.6921 38.3728 83.6578 37.998 84.903 37.998 86.1482 37.998 87.0377 38.3855 87.7301 39.1542 88.4226 39.9166 88.7721 40.9522 88.7721 42.2546ZM82.7811 42.2482C82.7811 44.1478 83.4799 45.1008 84.8903 45.1008 86.3007 45.1008 86.9741 44.1478 86.9741 42.2482 86.9741 40.3486 86.2753 39.4274 84.8712 39.4274 84.1343 39.4274 83.6006 39.6688 83.2703 40.158 82.9399 40.6472 82.7811 41.3397 82.7811 42.2482ZM92.5395 46.3777 90.7924 46.3777 90.7924 34.796 92.5395 34.796 92.5395 46.3777ZM96.796 46.3777 95.0489 46.3777 95.0489 38.1441 96.796 38.1441 96.796 46.3777ZM94.9409 35.965C94.9409 35.6537 95.0235 35.4123 95.1951 35.2407 95.3666 35.0692 95.6144 34.9866 95.932 34.9866 96.2497 34.9866 96.4784 35.0692 96.6436 35.2407 96.8151 35.4123 96.904 35.6473 96.904 35.965 96.904 36.2826 96.8151 36.4986 96.6436 36.6702 96.472 36.8417 96.237 36.9243 95.932 36.9243 95.6271 36.9243 95.3666 36.8417 95.1951 36.6702 95.0235 36.4986 94.9409 36.2636 94.9409 35.965ZM102.622 46.5302C101.377 46.5302 100.43 46.1681 99.7757 45.4438 99.134 44.7132 98.81 43.6713 98.81 42.3117 98.81 40.9522 99.1467 39.8594 99.8201 39.1161 100.5 38.3728 101.478 37.998 102.762 37.998 103.632 37.998 104.413 38.1568 105.106 38.4808L104.579 39.8848C103.842 39.599 103.232 39.4528 102.749 39.4528 101.326 39.4528 100.614 40.3994 100.614 42.2863 100.614 43.2075 100.792 43.9064 101.142 44.3701 101.497 44.8339 102.018 45.0626 102.704 45.0626 103.486 45.0626 104.223 44.8657 104.915 44.4781L104.915 46.0029C104.604 46.1871 104.267 46.3206 103.912 46.3968 103.562 46.473 103.13 46.5175 102.622 46.5175ZM105.601 38.1504 107.507 38.1504 109.185 42.82C109.439 43.4871 109.604 44.1097 109.693 44.6942L109.75 44.6942C109.795 44.421 109.877 44.0906 109.998 43.7031 110.119 43.3092 110.747 41.4604 111.891 38.1504L113.784 38.1504 110.265 47.4768C109.623 49.1858 108.556 50.0435 107.063 50.0435 106.675 50.0435 106.3 49.999 105.932 49.9164L105.932 48.5314C106.199 48.5886 106.497 48.6204 106.834 48.6204 107.679 48.6204 108.27 48.1312 108.613 47.1528L108.918 46.3777 105.614 38.1441ZM121.097 37.8455C121.097 38.1568 121.179 38.4554 121.344 38.7286 121.516 39.0081 121.745 39.3004 122.043 39.6117 122.602 39.294 122.996 39.0018 123.219 38.7286 123.447 38.449 123.562 38.1377 123.562 37.801 123.562 37.477 123.454 37.2229 123.238 37.0259 123.022 36.8354 122.736 36.7337 122.38 36.7337 121.986 36.7337 121.675 36.8354 121.44 37.0387 121.211 37.2356 121.097 37.5024 121.097 37.8455ZM122.208 45.0309C123.117 45.0309 123.892 44.764 124.54 44.2367L121.688 41.4287C121.16 41.7654 120.798 42.083 120.601 42.3816 120.404 42.6739 120.303 43.0106 120.303 43.3854 120.303 43.8746 120.474 44.2685 120.817 44.5798 121.167 44.8848 121.63 45.0309 122.208 45.0309ZM118.454 43.5061C118.454 42.8581 118.613 42.2927 118.93 41.8098 119.248 41.3207 119.82 40.8442 120.652 40.3677 120.182 39.815 119.858 39.3512 119.686 38.9764 119.515 38.5952 119.432 38.2013 119.432 37.7947 119.432 37.0387 119.699 36.4478 120.239 36.0094 120.779 35.5711 121.503 35.3551 122.412 35.3551 123.32 35.3551 123.981 35.5711 124.483 35.9967 124.985 36.416 125.233 36.9878 125.233 37.7121 125.233 38.2775 125.067 38.7921 124.724 39.2559 124.394 39.7197 123.835 40.1771 123.047 40.6409L125.62 43.1249C126.02 42.5913 126.357 41.8162 126.624 40.787L128.428 40.787C128.079 42.1974 127.526 43.3473 126.764 44.2367L129.006 46.4031 126.751 46.4031 125.639 45.3231C125.131 45.7297 124.591 46.0347 124.019 46.2443 123.447 46.4476 122.812 46.5493 122.12 46.5493 120.976 46.5493 120.08 46.2761 119.432 45.7361 118.784 45.196 118.454 44.4527 118.454 43.5188ZM140.702 43.4299C140.702 44.3956 140.353 45.1579 139.654 45.7107 138.955 46.2634 137.99 46.5366 136.757 46.5366 135.525 46.5366 134.521 46.346 133.733 45.9648L133.733 44.2812C134.229 44.5163 134.756 44.7005 135.309 44.8339 135.868 44.9673 136.389 45.0372 136.871 45.0372 137.577 45.0372 138.098 44.9038 138.428 44.637 138.765 44.3701 138.936 44.008 138.936 43.5569 138.936 43.1503 138.784 42.8073 138.472 42.5214 138.168 42.2419 137.532 41.9051 136.567 41.5176 135.575 41.1174 134.877 40.6599 134.47 40.139 134.063 39.6244 133.86 39.0018 133.86 38.2775 133.86 37.369 134.184 36.6511 134.826 36.1302 135.467 35.6092 136.338 35.3487 137.424 35.3487 138.511 35.3487 139.502 35.5774 140.537 36.0349L139.972 37.4897C139.006 37.0831 138.142 36.8798 137.38 36.8798 136.802 36.8798 136.37 37.0069 136.071 37.261 135.772 37.5088 135.626 37.8391 135.626 38.2521 135.626 38.5316 135.683 38.7794 135.804 38.9827 135.925 39.1796 136.122 39.3702 136.395 39.5481 136.668 39.726 137.157 39.9611 137.869 40.2533 138.669 40.5837 139.254 40.895 139.629 41.1809 140.004 41.4668 140.277 41.7971 140.448 42.1593 140.62 42.5214 140.709 42.947 140.709 43.4426ZM148.428 46.3841 148.18 45.3041 148.091 45.3041C147.85 45.6852 147.5 45.9838 147.049 46.2062 146.604 46.4222 146.09 46.5302 145.518 46.5302 144.521 46.5302 143.777 46.2824 143.282 45.7869 142.793 45.2913 142.545 44.5417 142.545 43.5315L142.545 38.1504 144.311 38.1504 144.311 43.2266C144.311 43.8555 144.438 44.332 144.699 44.6497 144.959 44.961 145.359 45.1198 145.912 45.1198 146.649 45.1198 147.183 44.9038 147.526 44.4654 147.875 44.0207 148.047 43.2838 148.047 42.2546L148.047 38.1504 149.806 38.1504 149.806 46.3841 148.428 46.3841ZM156.477 46.5302C155.435 46.5302 154.628 46.1554 154.05 45.4057L153.949 45.4057C154.019 46.0982 154.05 46.5239 154.05 46.67L154.05 50.0435 152.303 50.0435 152.303 38.1441 153.72 38.1441C153.758 38.2966 153.841 38.6651 153.968 39.2432L154.057 39.2432C154.603 38.4109 155.423 37.9916 156.515 37.9916 157.545 37.9916 158.345 38.3665 158.91 39.1098 159.489 39.8531 159.774 40.9013 159.774 42.2419 159.774 43.5824 159.482 44.637 158.898 45.393 158.32 46.149 157.513 46.5239 156.484 46.5239ZM156.052 39.4274C155.359 39.4274 154.851 39.6307 154.527 40.0373 154.209 40.4439 154.05 41.0919 154.05 41.9877L154.05 42.2482C154.05 43.252 154.209 43.9763 154.527 44.4273 154.844 44.872 155.365 45.0944 156.083 45.0944 156.687 45.0944 157.157 44.8466 157.481 44.3511 157.811 43.8555 157.97 43.1503 157.97 42.2291 157.97 41.3079 157.805 40.6091 157.481 40.139 157.157 39.6625 156.68 39.4274 156.052 39.4274ZM165.975 46.5302C164.933 46.5302 164.126 46.1554 163.548 45.4057L163.447 45.4057C163.516 46.0982 163.548 46.5239 163.548 46.67L163.548 50.0435 161.801 50.0435 161.801 38.1441 163.218 38.1441C163.256 38.2966 163.339 38.6651 163.466 39.2432L163.555 39.2432C164.101 38.4109 164.92 37.9916 166.013 37.9916 167.042 37.9916 167.843 38.3665 168.408 39.1098 168.986 39.8531 169.272 40.9013 169.272 42.2419 169.272 43.5824 168.98 44.637 168.396 45.393 167.817 46.149 167.011 46.5239 165.981 46.5239ZM165.549 39.4274C164.857 39.4274 164.349 39.6307 164.025 40.0373 163.707 40.4439 163.548 41.0919 163.548 41.9877L163.548 42.2482C163.548 43.252 163.707 43.9763 164.025 44.4273 164.342 44.872 164.863 45.0944 165.581 45.0944 166.185 45.0944 166.655 44.8466 166.979 44.3511 167.309 43.8555 167.468 43.1503 167.468 42.2291 167.468 41.3079 167.303 40.6091 166.979 40.139 166.655 39.6625 166.178 39.4274 165.549 39.4274ZM178.599 42.2482C178.599 43.5951 178.256 44.6433 177.563 45.3993 176.871 46.1554 175.911 46.5302 174.679 46.5302 173.91 46.5302 173.23 46.3587 172.64 46.0092 172.049 45.6598 171.598 45.1643 171.28 44.5099 170.962 43.8619 170.803 43.1059 170.803 42.2482 170.803 40.9141 171.147 39.8721 171.833 39.1225 172.519 38.3728 173.484 37.998 174.73 37.998 175.975 37.998 176.864 38.3855 177.557 39.1542 178.249 39.9166 178.599 40.9522 178.599 42.2546ZM172.608 42.2482C172.608 44.1478 173.313 45.1008 174.717 45.1008 176.121 45.1008 176.801 44.1478 176.801 42.2482 176.801 40.3486 176.102 39.4274 174.704 39.4274 173.967 39.4274 173.434 39.6688 173.103 40.158 172.773 40.6472 172.614 41.3397 172.614 42.2482ZM184.793 37.998C185.142 37.998 185.435 38.0234 185.663 38.0742L185.492 39.707C185.244 39.6498 184.984 39.618 184.717 39.618 184.018 39.618 183.446 39.8467 183.014 40.3042 182.582 40.7616 182.366 41.3524 182.366 42.083L182.366 46.3841 180.619 46.3841 180.619 38.1504 181.991 38.1504 182.22 39.599 182.309 39.599C182.582 39.1098 182.938 38.7159 183.376 38.43 183.821 38.1441 184.291 37.998 184.799 37.998ZM190.263 45.1135C190.689 45.1135 191.114 45.0436 191.546 44.9102L191.546 46.2253C191.356 46.3078 191.102 46.3777 190.797 46.4349 190.492 46.4921 190.18 46.5239 189.85 46.5239 188.192 46.5239 187.366 45.6471 187.366 43.9064L187.366 39.4719 186.242 39.4719 186.242 38.6968 187.449 38.0552 188.046 36.3144 189.126 36.3144 189.126 38.1441 191.47 38.1441 191.47 39.4719 189.126 39.4719 189.126 43.881C189.126 44.3066 189.227 44.6179 189.437 44.8212 189.653 45.0182 189.926 45.1198 190.269 45.1198Z" fill="#057A8B" fill-rule="nonzero" fill-opacity="1" transform="matrix(1.01295 0 0 1 222 349.005)"/><path d="M46.0029 54.5161C44.205 56.2568 41.7908 57.2161 39.2877 57.1907 38.0869 57.1907 36.9052 56.943 35.8061 56.4601 34.7071 55.9773 33.7223 55.2784 32.9028 54.4017 31.2446 52.6292 30.3171 50.2912 30.3171 47.858 30.3171 45.4248 31.2383 43.0932 32.9028 41.3143 33.716 40.4312 34.7071 39.726 35.8125 39.2432 36.9179 38.7603 38.106 38.5126 39.3067 38.5189 44.6878 38.5189 48.7411 42.5532 48.7411 47.9025 48.7538 49.1286 48.5187 50.3484 48.0486 51.4856 47.5785 52.6228 46.8923 53.652 46.022 54.5161L46.0029 54.5161ZM52.6546 47.7818 52.6546 36.0793C52.6546 35.8633 52.5657 35.66 52.4132 35.5076 52.2607 35.3551 52.0511 35.2725 51.8414 35.2725L49.5416 35.2725C49.3256 35.2725 49.1159 35.3551 48.9698 35.5076 48.8173 35.66 48.7347 35.8697 48.7347 36.0793L48.7347 38.4363C46.2443 36.0412 42.9153 34.7261 39.4592 34.7579 37.7375 34.7579 36.0285 35.0882 34.4402 35.7553 32.852 36.4224 31.4098 37.3944 30.2027 38.6269 27.8012 41.0983 26.4671 44.4146 26.4861 47.8644 26.5052 51.3141 27.8775 54.6114 30.3107 57.0573 32.7439 59.5033 36.0349 60.8946 39.4846 60.9327 42.9343 60.9708 46.257 59.6557 48.7474 57.267L48.7474 59.624C48.7474 59.84 48.83 60.0433 48.9825 60.1958 49.135 60.3482 49.3446 60.4308 49.5543 60.4308L51.8478 60.4308C52.0638 60.4308 52.2671 60.3482 52.4195 60.1958 52.572 60.0433 52.661 59.8336 52.661 59.624L52.661 47.7627" fill="#057A8B" fill-rule="nonzero" fill-opacity="1" transform="matrix(1.01295 0 0 1 222 349.005)"/><path d="M16.5562 44.9419C13.8752 43.9635 12.2234 43.2647 12.2234 41.3842 12.2234 39.7768 13.9514 38.5316 15.4444 38.5316 16.1623 38.5316 16.8675 38.7349 17.4711 39.1225 18.0746 39.51 18.5511 40.0691 18.837 40.7298 18.8815 40.8315 18.945 40.9204 19.0276 40.9966 19.1102 41.0729 19.2055 41.1301 19.3071 41.1682 19.3897 41.1999 19.4786 41.2127 19.5676 41.2127 19.6947 41.2127 19.8217 41.1809 19.9361 41.1237L21.9246 40.1072C22.1088 40.0119 22.255 39.8467 22.3185 39.6498 22.3884 39.4528 22.3757 39.2368 22.2867 39.0399 21.6514 37.7883 20.6857 36.7337 19.4977 35.984 18.3097 35.2344 16.9374 34.8278 15.5334 34.796 13.6846 34.7769 11.893 35.4377 10.5017 36.6448 9.80285 37.261 9.25013 38.0234 8.86895 38.8684 8.48776 39.7197 8.29717 40.6409 8.30352 41.5684 8.30352 46.149 12.5919 47.7182 15.724 48.8618 18.1 49.6877 19.7772 50.4501 19.7772 52.7372 19.7836 53.328 19.6692 53.9125 19.4469 54.4652 19.2245 55.0116 18.8942 55.5135 18.4749 55.9265 18.0555 56.3458 17.56 56.6761 17.0136 56.8985 16.4673 57.1208 15.8764 57.2352 15.2856 57.2288 13.5575 57.2288 11.2768 56.4982 10.1967 53.0104 10.165 52.9087 10.1142 52.8134 10.0443 52.7308 9.97439 52.6483 9.8918 52.5784 9.7965 52.5275 9.68215 52.464 9.55508 52.4386 9.42167 52.4386 9.33908 52.4386 9.25649 52.4513 9.1739 52.4767L6.93125 53.1946C6.7343 53.2582 6.56912 53.3916 6.46747 53.5758 6.36582 53.7537 6.34041 53.9697 6.39123 54.1666 7.4395 58.3152 10.9337 61.0026 15.2856 61.0026 20.0758 61.0026 23.6908 57.4893 23.6908 52.8452 23.6908 47.5721 19.7391 46.1427 16.5499 44.98" fill="#057A8B" fill-rule="nonzero" fill-opacity="1" transform="matrix(1.01295 0 0 1 222 349.005)"/><path d="M58.6075 28.049C58.1373 28.049 57.6736 28.1888 57.286 28.4492 56.8921 28.7097 56.5872 29.0846 56.4093 29.5166 56.2314 29.9549 56.1806 30.4314 56.2759 30.8952 56.3648 31.359 56.5935 31.7846 56.9303 32.115 57.2606 32.4454 57.6863 32.6741 58.15 32.7694 58.6138 32.8583 59.0903 32.8138 59.5287 32.6359 59.9607 32.4581 60.3355 32.1531 60.596 31.7592 60.8565 31.3653 60.9962 30.9079 60.9962 30.4378 60.9962 30.1265 60.9391 29.8152 60.8247 29.5229 60.704 29.2307 60.5325 28.9702 60.3101 28.7478 60.0877 28.5255 59.8273 28.3476 59.535 28.2332 59.2428 28.1125 58.9315 28.0553 58.6202 28.0617Z" fill="#FC6D71" fill-rule="nonzero" fill-opacity="1" transform="matrix(1.01295 0 0 1 222 349.005)"/><path d="M9.52967 28.8304 51.4602 28.8304C52.248 28.8304 52.8897 29.4721 52.8897 30.2599 52.8897 31.0477 52.248 31.6893 51.4602 31.6893L9.52967 31.6893C8.74188 31.6893 8.10022 31.0477 8.10022 30.2599 8.10022 29.4721 8.74188 28.8304 9.52967 28.8304Z" fill="#FFED75" fill-rule="nonzero" fill-opacity="1" transform="matrix(1.01295 0 0 1 222 349.005)"/><path d="M2.38242 28.049C1.91229 28.049 1.44851 28.1888 1.06097 28.4492 0.667077 28.7097 0.362127 29.0846 0.18424 29.5166 0.00635311 29.9549-0.0444718 30.4314 0.0508249 30.8952 0.139768 31.359 0.368481 31.7846 0.705196 32.115 1.03556 32.4454 1.46122 32.6741 1.92499 32.7694 2.38877 32.8583 2.86525 32.8138 3.30362 32.6359 3.74198 32.4581 4.11046 32.1531 4.37094 31.7592 4.63142 31.3653 4.77119 30.9079 4.77119 30.4378 4.77119 30.1265 4.71401 29.8152 4.59965 29.5229 4.47895 29.2307 4.30741 28.9702 4.08505 28.7478 3.86269 28.5255 3.60222 28.3476 3.30997 28.2332 3.01773 28.1125 2.70643 28.0553 2.39512 28.0617Z" fill="#09181B" fill-rule="nonzero" fill-opacity="1" transform="matrix(1.01295 0 0 1 222 349.005)"/><path d="M32.8901 6.52465C33.7096 5.63521 34.7007 4.93002 35.8061 4.44718 36.9116 3.96434 38.106 3.71657 39.3131 3.72292 44.7005 3.72292 48.7729 7.7635 48.7729 13.1255 48.7856 14.358 48.5505 15.5778 48.0804 16.715 47.6102 17.8522 46.9177 18.8878 46.0474 19.7518 44.2494 21.4989 41.8289 22.4646 39.3194 22.4328 38.1187 22.4328 36.9306 22.1851 35.8252 21.7086 34.7261 21.2258 33.735 20.5269 32.9155 19.6438 31.251 17.865 30.3298 15.5207 30.3298 13.0874 30.3298 10.6542 31.2573 8.30987 32.9155 6.531L32.8964 6.531ZM39.4973 26.1558C42.9852 26.1875 46.346 24.8407 48.8427 22.4074 51.295 19.9234 52.6737 16.5753 52.6737 13.0811 52.6737 9.58685 51.295 6.23876 48.8427 3.75469 46.346 1.31509 42.9852-0.0381187 39.491 0 37.7756 0 36.073 0.336715 34.4911 0.997439 32.9091 1.65816 31.4733 2.63654 30.2726 3.86269 28.4619 5.69239 27.2294 8.01763 26.7339 10.5462 26.2384 13.0747 26.4988 15.6922 27.4836 18.0746 28.4683 20.457 30.1328 22.49 32.2738 23.9322 34.4085 25.368 36.9243 26.1431 39.5037 26.1621Z" fill="#057A8B" fill-rule="nonzero" fill-opacity="1" transform="matrix(1.01295 0 0 1 222 349.005)"/><path d="M12.2869 14.6185 14.2373 14.6185C15.7748 14.6185 17.3694 14.663 18.4621 15.2094 18.9831 15.5016 19.4151 15.9273 19.7074 16.4482 19.9996 16.9692 20.1457 17.56 20.1203 18.1572 20.1203 18.7607 19.9615 19.3516 19.6629 19.8725 19.3706 20.3998 18.945 20.8382 18.4367 21.1559 17.5282 21.7721 16.4355 21.8166 14.987 21.8166L12.2869 21.8166 12.2869 14.6185ZM12.2869 4.33918 13.5448 4.33918C14.771 4.33918 15.9209 4.33918 16.7659 4.87284 17.1915 5.17143 17.5346 5.57803 17.757 6.04181 17.9793 6.51194 18.081 7.0329 18.0492 7.5475 18.0492 8.86259 17.7442 9.55508 16.8802 10.184 16.0924 10.7495 15.3364 10.7939 14.2754 10.7939L12.2933 10.7939 12.2933 4.33918ZM9.16119 25.6475 15.4063 25.6475C18.7735 25.6475 20.3236 24.7263 21.4989 23.7289 22.3185 23.0364 22.9665 22.1724 23.4049 21.2003 23.8432 20.2283 24.0592 19.1673 24.0338 18.1 24.0465 16.8612 23.7225 15.6414 23.1063 14.5677 22.49 13.494 21.5942 12.6046 20.5206 11.9947 21.4926 10.8066 22.0008 9.30096 21.9437 7.7635 21.9437 5.36838 21.1686 3.47515 19.6311 2.141 17.9412 0.641664 15.9082 0.514602 14.1293 0.514602L9.16119 0.514602C8.95154 0.514602 8.74824 0.597193 8.60212 0.743314 8.45599 0.889436 8.3734 1.09274 8.3734 1.30239L8.3734 24.8534C8.3734 25.063 8.45599 25.26 8.60847 25.4125 8.75459 25.5586 8.95789 25.6412 9.16754 25.6475Z" fill="#057A8B" fill-rule="nonzero" fill-opacity="1" transform="matrix(1.01295 0 0 1 222 349.005)"/></g></g></g></g></svg>