<svg width="100" height="69" xmlns="http://www.w3.org/2000/svg" xmlns:xlink="http://www.w3.org/1999/xlink" xml:space="preserve" overflow="hidden"><defs><clipPath id="clip0"><rect x="552" y="348" width="100" height="69"/></clipPath><clipPath id="clip1"><rect x="553" y="349" width="98" height="68"/></clipPath><clipPath id="clip2"><rect x="553" y="349" width="98" height="68"/></clipPath><clipPath id="clip3"><rect x="553" y="349" width="98" height="68"/></clipPath></defs><g clip-path="url(#clip0)" transform="translate(-552 -348)"><g clip-path="url(#clip1)"><g clip-path="url(#clip2)"><g clip-path="url(#clip3)"><path d="M64.607 18.7315C73.447 18.7315 80.6326 25.9241 80.6326 34.7571 80.6326 43.5901 73.44 50.7827 64.607 50.7827 55.774 50.7827 48.5814 43.5901 48.5814 34.7571 48.5814 25.9241 55.774 18.7315 64.607 18.7315M64.607 2.70598C46.906 2.70598 32.5559 17.0561 32.5559 34.7571 32.5559 52.4581 46.906 66.8083 64.607 66.8083 82.308 66.8083 96.6581 52.4581 96.6581 34.7571 96.6652 17.0561 82.315 2.70598 64.607 2.70598Z" fill="#000000" fill-rule="nonzero" fill-opacity="1" transform="matrix(1.00571 0 0 1 553.183 349.617)"/><path d="M15.1002 24.5781 15.1002 24.5781 4.98113e-15 58.494 17.007 66.0652 24.5361 49.1493C28.7142 39.7625 24.487 28.7563 15.1002 24.5781Z" fill="#000000" fill-rule="nonzero" fill-opacity="1" transform="matrix(1.00571 0 0 1 553.183 349.617)"/><path d="M5.66433 4.98113e-15C1.48619 9.39381 5.70639 20.393 15.1002 24.5781L22.6713 7.57113 5.66433 4.98113e-15Z" fill="#000000" fill-rule="nonzero" fill-opacity="1" transform="matrix(1.00571 0 0 1 553.183 349.617)"/></g></g></g></g></svg>